<?xml version="1.0" encoding="utf-8"?>
<!-- Generator: Adobe Illustrator 19.1.1, SVG Export Plug-In . SVG Version: 6.00 Build 0)  -->
<svg version="1.1" id="Layer_1" xmlns="http://www.w3.org/2000/svg" xmlns:xlink="http://www.w3.org/1999/xlink" x="0px" y="0px"
	 viewBox="-142.9 14.2 120.7 120.7" style="enable-background:new -142.9 14.2 120.7 120.7;" xml:space="preserve">
<style type="text/css">
	.st0{fill-rule:evenodd;clip-rule:evenodd;fill:#191717;}
</style>
<g id="Blue_1_">
	<path d="M-28.9,134.9c3.7,0,6.7-3,6.7-6.7V20.9c0-3.7-3-6.7-6.7-6.7h-107.4c-3.7,0-6.7,3-6.7,6.7v107.4c0,3.7,3,6.7,6.7,6.7H-28.9z
		"/>
</g>
<path id="f" class="st0" d="M-59.6,134.9V88.2h15.7l2.3-18.2h-18V58.3c0-5.3,1.5-8.9,9-8.9l9.6,0V33.2c-1.7-0.2-7.4-0.7-14.1-0.7
	c-13.9,0-23.4,8.5-23.4,24.1v13.4h-15.7v18.2h15.7v46.7H-59.6z"/>
</svg>
