<?xml version="1.0" encoding="utf-8"?>
<!-- Generator: Adobe Illustrator 19.1.1, SVG Export Plug-In . SVG Version: 6.00 Build 0)  -->
<svg version="1.1" id="Layer_1" xmlns="http://www.w3.org/2000/svg" xmlns:xlink="http://www.w3.org/1999/xlink" x="0px" y="0px"
	 viewBox="0 0 700 150" style="enable-background:new 0 0 700 150;" xml:space="preserve">
<style type="text/css">
	.st0{fill-rule:evenodd;clip-rule:evenodd;fill:#00CC00;}
	.st1{fill:#002400;}
</style>
<g id="Shape_1">
	<g>
		<path class="st0" d="M459.8,74.8c-2-1.1-4.3-1.6-6.6-2.1c-12.4-3.2-25-0.8-36.7-5.9c-1.1-0.6-2.2-1.3-3.3-2.2
			c-0.9-0.9-1.8-1.8-2.6-2.8c-0.8-1-1.5-2-2.1-3.1c-10.7-14.2-3.4-31,4.1-44.4c-0.2-0.5-0.6-0.5-1.3-0.2
			c-12,10.4-19.3,25.2-18.3,41.5c-0.1,1.2-0.3,2.6-0.6,3.8c-0.4,1.2-1,2.4-2.1,3c-0.8,0.6-1.7,1.1-2.7,1.5c-1.9,0.7-4.1,1-6,1.1
			c-13.4,0.3-25.3-6.8-38.7-9.5c-1.3,0-2.8-0.3-4,0.3c6.6,12.6,21.7,15.8,32.8,22.9c1.1,0.6,2.1,1.3,3,2c0.9,0.7,1.8,1.4,2.6,2.2
			c2.2,2.4,3.1,4.9,3,7.4c0,1.3-0.3,2.6-0.7,3.9c-0.6,1.2-1.4,2.4-2.1,3.6c-0.8,1.1-1.6,2.2-2.5,3.3c-10.1,11.3-25.8,18.9-31.1,33.7
			c2,0.3,3.8-0.5,5.3-1.6c10.9-8.9,21.7-16.6,34.2-22.1c1.2-0.5,2.3-1,3.5-1.5c1.2-0.5,2.3-0.9,3.5-1.4c1.2-0.4,2.4-0.7,3.6-0.9
			c4.8-0.8,9.4,0.4,13.3,5.7c0.9,1,1.7,2.1,2.5,3.3c4.1,5.8,7.5,12.7,12.1,17.2c1.5,1.3,4,3.9,4.8,2.1c0.2-0.3,0.3-0.6,0.4-1
			c-1.4-0.3-2.5-1.2-3.5-2.4c-4.8-5.4-8.4-14.2-13-21.2c-0.8-1.2-1.5-2.3-2.4-3.3c-3.7-5.9-10.3-7.9-16.4-6.6c-1,0.2-2,0.5-3,0.9
			c-1,0.5-2.1,1.1-3.1,1.6c-1,0.6-2,1.2-3,1.8c-12.2,8.1-24.3,15.9-34.4,26.7c7.3-12.9,20.2-19.5,30.8-28.7c1.1-1.1,2.2-2.2,3.2-3.3
			c1-1.2,2-2.4,2.8-3.6c0.6-0.9,1.3-1.8,1.8-2.8c0.6-1,1.2-1.9,1.7-3c1.5-3.4,0.8-8.1-3.1-9.6c-0.7-0.4-1.5-0.9-2.2-1.3
			c-1.5-0.8-3-1.5-4.6-2.2c-1-0.5-2.1-0.9-3.1-1.3c-9.2-3.5-18.3-7.5-27.4-11.7c9.9,1.3,19,5,28.4,7.8c1.1,0.3,2.2,0.6,3.4,0.8
			c1.1,0.2,2.2,0.4,3.4,0.6c2.8,0.3,5.8,0.5,8.5-0.1c1.1-0.2,2.2-0.7,3.2-1.2c1-0.6,1.9-1.4,2.8-2.4c0.5-0.8,0.9-1.8,1.2-2.9
			c0.2-2.3,0.1-4.7-0.1-7.1c-0.1-1.2-0.2-2.4-0.3-3.6c-0.3-4.4-1.6-8.6-1.6-13.1c0.8,4.7,2.3,9.5,3.4,14.1c0.3,1.3,0.6,2.6,0.9,3.9
			c0.6,2.6,1.3,5.1,1.9,7.6c0.4,1.4,1,2.5,1.7,3.4c1,0.8,2.1,1.4,3.2,1.9c2.7,0.9,5.5,1.9,8.3,1.5c1.6-0.1,3.2-0.3,4.8-0.4
			c11.4-1.1,22.7-2.6,34.1-0.5c-9.2,2-19.5,1.2-28.6,3.9c-1.3,0.4-2.5,0.9-3.8,1.5c-13.1,14.3,3.6,35.7,4.4,53.1
			c3.7-10.6-2.1-22.4-2.8-33.8c-0.5-4.5-0.5-9.2,2.6-12.5c1.1-0.7,2.2-1.3,3.3-1.8c9.2-4,20-3.6,29.5-7
			C462.1,77.9,461.1,75.6,459.8,74.8z M427.8,134.6c0,0,0-0.3,0-0.8c0-0.1,0-0.2,0-0.2c-0.1,0.3-0.2,0.7-0.4,1
			C427.5,134.5,427.7,134.6,427.8,134.6z"/>
	</g>
</g>
<g>
	<path class="st1" d="M70.7,29.3c0.7,6.6,1,13,1,19.4c0,24.6-4.7,48.9-14.1,73.1h-0.1c0.6-6.1,1-12.2,1.2-18.4
		c0.2-6.1,0-12.3-0.4-18.5l-32.9-7.7c-2.2,15.1-6.2,30-12,44.7h-0.1c0.7-7.8,1.1-15.6,1.1-23.5c0-22.5-3.5-42.7-10.5-60.4
		c5-1.9,12.6-4.7,22.7-8.6c0.7,6.4,1,12.8,1,19.3c0,8-0.5,16.1-1.5,24.1l29.8-8.1c-1.9-9.4-4.5-18.3-7.8-26.7
		C53.1,36,60.6,33.2,70.7,29.3z"/>
	<path class="st1" d="M149.7,114.3l-23.7,5.2c0.2-2.8,0.4-5.9,0.4-9.5c0-2,0-4.3-0.1-6.6l-39.4,4.8l-2.1,7c-0.2,1.6-0.7,3.8-1.4,6.8
		l-0.4-0.1c-0.6-34.4,7.3-65.6,23.5-93.7l1-1.1C129.6,49.5,143.6,78.6,149.7,114.3z M125.9,98.8c-1.2-14.7-4.4-31.6-9.7-50.6
		C106.9,58.7,98.8,73.5,92,92.5L125.9,98.8z"/>
	<path class="st1" d="M221.9,120.5c-25.7-5.7-48.4-17.3-68.1-34.9c0.8-0.6,2-1.6,3.5-2.9c19-27.1,38.4-45.9,58.3-56.4
		c0.8,5.7,1.9,14.4,3.3,25.9c-15.5,2.5-30.9,9-46.1,19.4c14.4,22.2,30.7,38.5,49,48.8V120.5z"/>
	<path class="st1" d="M308.6,131c-24.4-13.6-43.3-30.2-56.8-49.9c-2.3,13.8-6.6,27.9-13,42.1h-0.1c1.7-11.8,2.3-23.2,1.9-34.2
		c-5.5,3.7-10.6,6.8-15.4,9.5v-0.1c5-4.6,10-9.7,15.1-15.2c-1.2-15.4-4.7-30.3-10.4-44.8c3.7-1.3,7.5-2.7,11.3-4.1l11.4-4.2
		c0.9,7.6,1.4,15.1,1.4,22.5c0,5-0.2,9.9-0.6,14.7c9.3-12.7,16.7-26.3,22.2-40.9l11.1,2.9c3.6,1,7.3,1.9,11,2.8
		c-11.2,16.6-24.5,31.3-39.9,44.1c8.8-0.2,15.6-0.6,20.2-1c3.2,12,6.9,22.1,11.1,30.1c5,9.6,11.5,18.1,19.6,25.4V131z"/>
	<path class="st1" d="M354.3,70.3l-47.9,15.1l-0.6-24.9L354.3,70.3z"/>
	<path class="st1" d="M420.6,98.2c-0.8,5.6-2.1,13.9-3.8,24.9c-11.1-7.8-22.9-11.7-35.4-11.7c-2.9,0-5.6,0.2-8.2,0.6
		c-2.6,0.4-4.9,0.9-7,1.5v-0.2c1.8-1.6,4.1-3.4,6.9-5.3c0.2-11.5-0.8-22.4-3.2-32.4l-4.1-0.9v-0.1l3.6-1c-2.1-7.9-5.2-15.9-9-23.8
		c1.9-0.9,4.7-2.3,8.5-4.1c-4-1.5-7.9-3.4-11.5-5.7V40c2.5,0.2,5,0.4,7.4,0.4c17.7,0,33.6-6,47.9-18.1l3.5,12.2c1.2,4,2.4,8,3.6,12
		c-8.4,2.9-16.7,4.4-24.9,4.4c-5.4,0-10.7-0.7-16-2c1.2,7.5,1.7,14.8,1.7,21.7l34.5-9.2L411,84.7L380.4,78c-0.7,9.5-2.4,19-5.1,28.6
		c10.3-6.6,21.1-9.8,32.2-9.8C411.8,96.8,416.2,97.3,420.6,98.2z"/>
	<path class="st1" d="M479.8,70.3l-47.9,15.1l-0.6-24.9L479.8,70.3z"/>
	<path class="st1" d="M552.8,94.1c-1.6,1.2-4,2.8-7.2,5.1c1.5,5.7,2.8,10.1,3.8,13.2c-7.8,2.6-15.5,3.9-23.2,3.9
		c-7.1,0-14.1-1.2-21.1-3.6c0.4,1.1,1,2.3,1.7,3.6h-19.2c-0.1-1.2-0.1-2.4-0.1-3.6c0-13.3,5.8-25,17.3-34.9h0.2
		c-2.6,6.1-4,12-4,17.6c0,3.5,0.5,7.1,1.6,10.8c7.9-0.5,15.4-2.4,22.4-5.7c-4.6-15.6-12.2-29-22.7-40.2c-4-4.3-8.8-8.5-14.5-12.8
		v-0.1l8,2c-0.7-2.2-1.4-4.5-2.1-6.9l-2-7c7.8-2.7,15.5-4.1,23.2-4.1c7.3,0,14.5,1.2,21.7,3.7c-1.3-2.6-2.4-4.5-3.2-5.8
		c2.1-0.2,5.3-0.4,9.5-0.8c4.2-0.4,7.4-0.6,9.5-0.8c0.3,2.2,0.5,4.4,0.5,6.5c0,12.1-5,23.2-15.1,33.2H538c1.5-4.1,2.4-8.3,2.7-12.7
		c0.3-4.3-0.2-8.7-1.5-13.4c-11.8,0.7-22.9,4.5-33.3,11.5C525.6,61,541.2,74.7,552.8,94.1z"/>
	<path class="st1" d="M636.5,33.1c-10.7,5.7-21.5,10.1-32.2,13c0,2.9,0,5.7,0,8.5c0,22.8-4.7,45.3-14.2,67.4h-0.4
		c1.4-13.3,1.8-25.3,1.1-35.9c-0.8-12-3.5-24-8-36c-5.2,0.6-10.4,0.9-15.5,0.9c-2.8,0-5.6-0.1-8.3-0.2c1-3.8,2-7.6,3.1-11.4
		l3.2-11.4c12,4.8,23.9,7.4,35.8,7.7c11.8,0.3,23.6-0.6,35.4-2.7V33.1z"/>
	<path class="st1" d="M697.6,114.3l-23.7,5.2c0.2-2.8,0.4-5.9,0.4-9.5c0-2,0-4.3-0.1-6.6l-39.4,4.8l-2.1,7c-0.2,1.6-0.7,3.8-1.4,6.8
		l-0.4-0.1c-0.6-34.4,7.3-65.6,23.5-93.7l1-1.1C677.5,49.5,691.5,78.6,697.6,114.3z M673.9,98.8c-1.2-14.7-4.4-31.6-9.7-50.6
		c-9.4,10.5-17.5,25.2-24.3,44.2L673.9,98.8z"/>
</g>
<g>
</g>
<g>
</g>
<g>
</g>
<g>
</g>
<g>
</g>
<g>
</g>
</svg>
