<?xml version="1.0" encoding="utf-8"?>
<!-- Generator: Adobe Illustrator 16.0.0, SVG Export Plug-In . SVG Version: 6.00 Build 0)  -->
<!DOCTYPE svg PUBLIC "-//W3C//DTD SVG 1.1//EN" "http://www.w3.org/Graphics/SVG/1.1/DTD/svg11.dtd">
<svg version="1.1" id="Layer_1" xmlns="http://www.w3.org/2000/svg" xmlns:xlink="http://www.w3.org/1999/xlink" x="0px" y="0px"
	 width="552.051px" height="118.275px" viewBox="0 0 552.051 118.275" enable-background="new 0 0 552.051 118.275"
	 xml:space="preserve">
<g id="Shape_1">
	<g>
		<path fill-rule="evenodd" clip-rule="evenodd" fill="#00CC00" d="M334.736,116.788c0,0,0.014-0.283,0.014-0.799
			c-0.003-0.08-0.012-0.162-0.015-0.242c-0.116,0.327-0.24,0.653-0.375,0.979C334.484,116.749,334.607,116.776,334.736,116.788z
			 M365.729,58.908c-1.961-1.018-4.158-1.528-6.359-2.035c-11.977-3.052-24.203-0.766-35.461-5.748
			c-1.109-0.588-2.166-1.281-3.174-2.104c-0.9-0.844-1.725-1.742-2.479-2.688c-0.746-0.948-1.426-1.934-2.044-2.97
			c-10.384-13.706-3.293-29.984,3.956-42.979c-0.197-0.442-0.627-0.511-1.303-0.169c-11.573,10.11-18.66,24.355-17.682,40.123
			c-0.123,1.145-0.246,2.482-0.602,3.691c-0.359,1.209-0.955,2.295-2.021,2.938c-0.775,0.62-1.657,1.086-2.596,1.441
			c-1.868,0.703-3.947,0.959-5.78,1.086c-12.963,0.256-24.453-6.611-37.407-9.157c-1.224,0-2.688-0.255-3.912,0.256
			c6.354,12.208,21.024,15.261,31.772,22.151c1.039,0.625,2,1.25,2.898,1.916c0.895,0.661,1.732,1.369,2.492,2.131
			c2.135,2.29,2.963,4.708,2.938,7.176c-0.018,1.237-0.25,2.486-0.671,3.737c-0.618,1.209-1.312,2.358-2.058,3.458
			c-0.749,1.096-1.557,2.148-2.412,3.172c-9.779,10.945-24.939,18.322-30.07,32.562c1.956,0.256,3.667-0.508,5.131-1.523
			c10.516-8.647,21.028-16.025,33.075-21.348c1.131-0.524,2.236-1.013,3.359-1.474c1.118-0.466,2.258-0.904,3.42-1.31
			c1.189-0.397,2.355-0.708,3.509-0.899c4.608-0.771,9.048,0.379,12.849,5.476c0.852,0.995,1.667,2.058,2.452,3.175
			c3.925,5.57,7.228,12.31,11.748,16.634c1.47,1.27,3.912,3.814,4.645,2.035c0.149-0.312,0.287-0.624,0.418-0.938
			c-1.352-0.262-2.456-1.205-3.348-2.369c-4.647-5.216-8.135-13.734-12.542-20.486c-0.732-1.123-1.496-2.199-2.294-3.212
			c-3.543-5.689-9.933-7.683-15.896-6.397c-0.991,0.215-1.974,0.521-2.938,0.914c-1.014,0.501-2,1.03-2.978,1.587
			c-0.974,0.556-1.935,1.136-2.881,1.743c-11.814,7.793-23.55,15.421-33.33,25.851c7.091-12.464,19.559-18.821,29.826-27.726
			c1.101-1.018,2.14-2.096,3.122-3.217c0.978-1.118,1.895-2.277,2.754-3.445c0.618-0.875,1.215-1.766,1.78-2.688
			c0.57-0.922,1.114-1.875,1.636-2.859c1.469-3.304,0.736-7.885-2.995-9.263c-0.702-0.429-1.416-0.839-2.136-1.228
			c-1.442-0.779-2.916-1.487-4.407-2.145c-1.004-0.438-2.008-0.853-3.03-1.264c-8.946-3.398-17.747-7.213-26.549-11.283
			c9.539,1.273,18.335,4.836,27.47,7.561c1.083,0.273,2.162,0.534,3.245,0.762c1.083,0.225,2.167,0.424,3.268,0.584
			c2.692,0.251,5.627,0.507,8.248-0.086c1.066-0.242,2.088-0.63,3.053-1.205c0.969-0.574,1.877-1.337,2.719-2.326
			c0.496-0.795,0.887-1.721,1.113-2.82c0.176-2.263,0.098-4.563-0.064-6.881c-0.074-1.154-0.176-2.317-0.308-3.499
			c-0.333-4.298-1.556-8.368-1.556-12.688c0.731,4.577,2.195,9.157,3.271,13.674c0.302,1.268,0.597,2.519,0.903,3.764
			c0.605,2.486,1.241,4.946,1.873,7.368c0.408,1.328,0.965,2.418,1.645,3.322c1.013,0.748,2.061,1.336,3.135,1.797
			c2.619,0.849,5.307,1.866,7.995,1.482c1.53-0.059,3.057-0.25,4.648-0.378c10.999-1.018,22.001-2.546,33-0.511
			c-8.897,1.961-18.875,1.176-27.663,3.786c-1.241,0.393-2.461,0.854-3.641,1.429c-12.643,13.799,3.519,34.52,4.228,51.373
			c3.605-10.215-2.057-21.671-2.749-32.675c-0.486-4.326-0.486-8.902,2.496-12.142c1.029-0.671,2.108-1.228,3.219-1.702
			c8.875-3.828,19.321-3.504,28.514-6.762C367.925,61.96,366.947,59.67,365.729,58.908z"/>
	</g>
</g>
<g>
	<path fill="#002400" d="M55.762,20.498c0.521,5.209,0.781,10.352,0.781,15.43c0,19.531-3.711,38.901-11.133,58.105h-0.098
		c0.455-4.817,0.781-9.7,0.977-14.648c0.13-4.883,0.032-9.798-0.293-14.746L20.02,58.486c-1.758,11.979-4.917,23.828-9.473,35.547
		h-0.098c0.586-6.185,0.879-12.402,0.879-18.652c0-17.903-2.768-33.919-8.301-48.047c3.97-1.497,9.927-3.775,17.871-6.836
		c0.521,5.078,0.781,10.19,0.781,15.332c0,6.381-0.391,12.761-1.172,19.141l23.535-6.445c-1.499-7.486-3.549-14.551-6.152-21.191
		C41.861,25.836,47.818,23.559,55.762,20.498z"/>
	<path fill="#002400" d="M118.066,88.076l-18.652,4.102c0.195-2.214,0.293-4.72,0.293-7.52c0-1.626-0.034-3.384-0.098-5.273
		l-31.055,3.809l-1.66,5.566c-0.195,1.236-0.554,3.027-1.074,5.371l-0.293-0.098c-0.456-27.344,5.728-52.181,18.555-74.512
		l0.781-0.879C102.181,36.547,113.248,59.691,118.066,88.076z M99.316,75.771c-0.913-11.719-3.452-25.13-7.617-40.234
		c-7.422,8.334-13.803,20.053-19.141,35.156L99.316,75.771z"/>
	<path fill="#002400" d="M175,92.958c-20.249-4.492-38.151-13.736-53.711-27.734c0.65-0.455,1.563-1.236,2.734-2.344
		c14.974-21.548,30.306-36.49,45.996-44.824c0.65,4.558,1.529,11.426,2.637,20.605c-12.241,2.019-24.35,7.163-36.328,15.43
		c11.328,17.644,24.219,30.566,38.672,38.77V92.958z"/>
	<path fill="#002400" d="M243.359,101.357c-19.206-10.808-34.147-24.023-44.824-39.648c-1.823,11.003-5.241,22.168-10.254,33.496
		h-0.098c1.302-9.375,1.79-18.423,1.465-27.148c-4.362,2.93-8.398,5.437-12.109,7.52v-0.098c3.906-3.646,7.876-7.681,11.914-12.109
		c-0.977-12.239-3.711-24.121-8.203-35.645c2.93-1.041,5.892-2.115,8.887-3.223l8.984-3.32c0.716,6.055,1.074,12.012,1.074,17.871
		c0,3.972-0.163,7.878-0.488,11.719c7.356-10.091,13.184-20.931,17.48-32.52l8.789,2.344c2.864,0.781,5.762,1.53,8.691,2.246
		c-8.854,13.217-19.336,24.902-31.445,35.059c6.966-0.195,12.271-0.455,15.918-0.781c2.539,9.57,5.469,17.546,8.789,23.926
		c3.906,7.617,9.048,14.355,15.43,20.215V101.357z"/>
	<path fill="#002400" d="M279.395,53.115l-37.793,12.012l-0.488-19.824L279.395,53.115z"/>
	<path fill="#002400" d="M331.738,75.283c-0.651,4.428-1.66,11.035-3.027,19.824c-8.725-6.185-18.034-9.277-27.93-9.277
		c-2.28,0-4.443,0.163-6.494,0.488c-2.051,0.327-3.892,0.717-5.518,1.172v-0.195c1.431-1.302,3.255-2.701,5.469-4.199
		c0.195-9.18-0.651-17.773-2.539-25.781l-3.223-0.684v-0.098l2.832-0.781c-1.694-6.314-4.069-12.63-7.129-18.945
		c1.497-0.716,3.743-1.79,6.738-3.223c-3.19-1.172-6.218-2.669-9.082-4.492v-0.098c1.953,0.195,3.906,0.293,5.859,0.293
		c13.931,0,26.528-4.785,37.793-14.355l2.734,9.668c0.911,3.19,1.855,6.381,2.832,9.57c-6.641,2.344-13.184,3.516-19.629,3.516
		c-4.233,0-8.433-0.521-12.598-1.563c0.911,5.991,1.367,11.752,1.367,17.285l27.246-7.324l-3.32,18.457L300,59.169
		c-0.522,7.553-1.855,15.137-4.004,22.754c8.138-5.208,16.602-7.813,25.391-7.813C324.771,74.111,328.223,74.501,331.738,75.283z"/>
	<path fill="#002400" d="M378.418,53.115l-37.793,12.012l-0.488-19.824L378.418,53.115z"/>
	<path fill="#002400" d="M435.938,72.002c-1.237,0.916-3.125,2.254-5.664,4.018c1.172,4.508,2.181,8.002,3.027,10.483
		c-6.12,2.09-12.207,3.136-18.262,3.136c-5.6,0-11.133-0.943-16.602-2.832c0.325,0.847,0.781,1.792,1.367,2.832h-15.137
		c-0.065-0.977-0.098-1.919-0.098-2.832c0-10.611,4.557-19.856,13.672-27.734h0.195c-2.084,4.883-3.125,9.538-3.125,13.965
		c0,2.8,0.423,5.664,1.27,8.594c6.25-0.391,12.142-1.888,17.676-4.492c-3.646-12.435-9.604-23.079-17.871-31.934
		c-3.125-3.384-6.934-6.771-11.426-10.156v-0.098l6.348,1.563c-0.586-1.758-1.14-3.58-1.66-5.469l-1.563-5.566
		c6.119-2.148,12.207-3.223,18.262-3.223c5.729,0,11.426,0.977,17.09,2.93c-1.042-2.083-1.889-3.613-2.539-4.59
		c1.692-0.13,4.199-0.342,7.52-0.635s5.826-0.503,7.52-0.635c0.26,1.758,0.391,3.483,0.391,5.176
		c0,9.636-3.972,18.425-11.914,26.367h-0.098c1.172-3.255,1.888-6.607,2.148-10.059c0.26-3.384-0.131-6.934-1.172-10.645
		c-9.311,0.523-18.066,3.562-26.27,9.112C414.518,45.679,426.822,56.587,435.938,72.002z"/>
	<path fill="#002400" d="M501.953,23.525c-8.464,4.558-16.928,8.008-25.391,10.352c0,2.28,0,4.526,0,6.738
		c0,18.164-3.744,36.035-11.23,53.613h-0.293c1.106-10.611,1.399-20.117,0.879-28.516c-0.651-9.505-2.768-19.043-6.348-28.613
		c-4.102,0.456-8.171,0.684-12.207,0.684c-2.214,0-4.395-0.064-6.543-0.195c0.781-2.994,1.595-6.021,2.441-9.082l2.539-9.082
		c9.439,3.842,18.848,5.893,28.223,6.152c9.31,0.261,18.619-0.455,27.93-2.148V23.525z"/>
	<path fill="#002400" d="M550.195,88.076l-18.652,4.102c0.195-2.214,0.293-4.72,0.293-7.52c0-1.626-0.033-3.384-0.098-5.273
		l-31.055,3.809l-1.66,5.566c-0.195,1.236-0.554,3.027-1.074,5.371l-0.293-0.098c-0.456-27.344,5.729-52.181,18.555-74.512
		l0.781-0.879C534.31,36.547,545.377,59.691,550.195,88.076z M531.445,75.771c-0.912-11.719-3.451-25.13-7.617-40.234
		c-7.422,8.334-13.803,20.053-19.141,35.156L531.445,75.771z"/>
</g>
</svg>
